<svg width="28" height="21" viewBox="0 0 28 21" fill="none" xmlns="http://www.w3.org/2000/svg">
<path d="M22.6469 0.671983H12.2277C9.27801 0.671983 7.60466 2.84921 5.7858 4.65614C3.96694 6.46306 1.23191 9.34254 1.23191 9.34254C0.90968 9.70438 0.732302 10.1711 0.733404 10.6542C0.734553 11.1388 0.911544 11.6067 1.23191 11.9722C1.23191 11.9722 3.39748 14.3305 5.7849 16.7085C8.17233 19.0865 9.36604 20.7551 12.2268 20.7551H22.646C23.8174 20.7352 24.9332 20.2555 25.7498 19.4209C26.5664 18.5863 27.0173 17.4646 27.0041 16.3007V4.99968C27.008 4.43019 26.898 3.8656 26.6804 3.33871C26.4628 2.81182 26.142 2.33315 25.7366 1.93049C25.3312 1.52783 24.8493 1.20922 24.3189 0.993176C23.7885 0.777128 23.2201 0.66795 22.6469 0.671983ZM21.5295 14.0164C21.7104 14.2061 21.8097 14.4585 21.8062 14.7198C21.8026 14.9811 21.6966 15.2307 21.5106 15.4155C21.3245 15.6003 21.0733 15.7056 20.8103 15.7092C20.5472 15.7127 20.2932 15.6141 20.1023 15.4343L16.7744 12.1283L13.4466 15.4343C13.3533 15.5282 13.2422 15.6028 13.1197 15.6537C12.9972 15.7046 12.8657 15.7308 12.733 15.7308C12.6002 15.7308 12.4687 15.7046 12.3462 15.6537C12.2237 15.6028 12.1126 15.5282 12.0193 15.4343C11.9214 15.3436 11.8433 15.2339 11.7899 15.1119C11.7365 14.99 11.7089 14.8584 11.7089 14.7254C11.7089 14.5924 11.7365 14.4608 11.7899 14.3388C11.8433 14.2169 11.9214 14.1071 12.0193 14.0164L15.3463 10.7104L12.0184 7.40444C11.9205 7.31377 11.8424 7.20403 11.789 7.08206C11.7356 6.96009 11.708 6.82851 11.708 6.69551C11.708 6.5625 11.7356 6.43092 11.789 6.30895C11.8424 6.18698 11.9205 6.07724 12.0184 5.98657C12.1089 5.88794 12.2191 5.80916 12.342 5.75525C12.4649 5.70134 12.5977 5.6735 12.7321 5.6735C12.8664 5.6735 12.9992 5.70134 13.1221 5.75525C13.245 5.80916 13.3552 5.88794 13.4457 5.98657L16.7735 9.29257L20.1014 5.98657C20.1941 5.88931 20.3056 5.81151 20.4291 5.75774C20.5526 5.70398 20.6858 5.67535 20.8206 5.67355C20.9555 5.67175 21.0893 5.69681 21.2143 5.74724C21.3392 5.79768 21.4527 5.87248 21.5481 5.96722C21.6435 6.06196 21.7187 6.17472 21.7695 6.29885C21.8203 6.42297 21.8455 6.55594 21.8437 6.68992C21.8419 6.82388 21.8131 6.95614 21.7589 7.07886C21.7048 7.20158 21.6265 7.31229 21.5286 7.40444L18.2008 10.7104L21.5295 14.0164Z" fill="white"/>
</svg>

